<?xml version="1.0" encoding="iso-8859-1"?>
<!-- Generator: Adobe Illustrator 21.1.0, SVG Export Plug-In . SVG Version: 6.00 Build 0)  -->
<svg version="1.1" id="JP" xmlns="http://www.w3.org/2000/svg" xmlns:xlink="http://www.w3.org/1999/xlink" x="0px" y="0px"
	 width="149.1044px" height="25.4627px" viewBox="0 0 149.1044 25.4627" enable-background="new 0 0 149.1044 25.4627"
	 xml:space="preserve">
<g id="XMLID_276_">
	<g>
		<path fill="#FFFFFF" d="M38.1923,9.1443h-4.7334l-1.1367,3.3564h-2.0049l4.4834-12.418h2.083l4.4834,12.418h-2.0391
			L38.1923,9.1443z M33.9492,7.5955h3.752l-1.8496-5.4473h-0.0518L33.9492,7.5955z"/>
		<path fill="#FFFFFF" d="M51.0498,7.9744c0,2.8135-1.5059,4.6211-3.7783,4.6211c-1.29,0-2.3145-0.5771-2.8486-1.584h-0.043v4.4844
			h-1.8584V3.447h1.7988v1.5059h0.0342c0.5166-0.9717,1.6182-1.6006,2.8828-1.6006C49.5351,3.3523,51.0498,5.1687,51.0498,7.9744z
			 M49.1396,7.9744c0-1.833-0.9473-3.0381-2.3926-3.0381c-1.4199,0-2.375,1.2305-2.375,3.0381c0,1.8242,0.9551,3.0459,2.375,3.0459
			C48.1923,11.0203,49.1396,9.824,49.1396,7.9744z"/>
		<path fill="#FFFFFF" d="M61.0146,7.9744c0,2.8135-1.5059,4.6211-3.7783,4.6211c-1.29,0-2.3145-0.5771-2.8486-1.584h-0.043v4.4844
			h-1.8584V3.447h1.7988v1.5059h0.0342c0.5166-0.9717,1.6182-1.6006,2.8828-1.6006C59.5,3.3523,61.0146,5.1687,61.0146,7.9744z
			 M59.1045,7.9744c0-1.833-0.9473-3.0381-2.3926-3.0381c-1.4199,0-2.375,1.2305-2.375,3.0381c0,1.8242,0.9551,3.0459,2.375,3.0459
			C58.1572,11.0203,59.1045,9.824,59.1045,7.9744z"/>
		<path fill="#FFFFFF" d="M62.5195,0.0828h1.8594v12.418h-1.8594V0.0828z"/>
		<path fill="#FFFFFF" d="M74.0546,9.8416c-0.25,1.6436-1.8506,2.7715-3.8984,2.7715c-2.6338,0-4.2686-1.7646-4.2686-4.5957
			c0-2.8398,1.6436-4.6816,4.1904-4.6816c2.5049,0,4.0801,1.7207,4.0801,4.4658v0.6367h-6.3945v0.1123
			c0,1.5488,0.9727,2.5645,2.4355,2.5645c1.0322,0,1.8418-0.4902,2.0908-1.2734H74.0546z M67.7724,7.1394h4.5264
			c-0.043-1.3857-0.9297-2.2979-2.2207-2.2979C68.7959,4.8416,67.8671,5.7713,67.7724,7.1394z"/>
		<path fill="#FFFFFF" d="M84.0566,0.0828c2.4092,0,4.0879,1.6611,4.0879,4.0791c0,2.4268-1.7129,4.0957-4.1484,4.0957h-2.668
			v4.2432h-1.9277V0.0828H84.0566z M81.3281,6.6404H83.54c1.6777,0,2.6328-0.9043,2.6328-2.4697
			c0-1.5664-0.9551-2.4619-2.624-2.4619h-2.2207V6.6404z"/>
		<path fill="#FFFFFF" d="M88.8232,7.9744c0-2.8486,1.6777-4.6387,4.2939-4.6387c2.625,0,4.2949,1.79,4.2949,4.6387
			c0,2.8564-1.6611,4.6387-4.2949,4.6387C90.4843,12.6131,88.8232,10.8308,88.8232,7.9744z M95.5185,7.9744
			c0-1.9541-0.8955-3.1074-2.4014-3.1074s-2.4014,1.1621-2.4014,3.1074c0,1.9619,0.8955,3.1064,2.4014,3.1064
			S95.5185,9.9363,95.5185,7.9744z"/>
		<path fill="#FFFFFF" d="M98.7168,7.9744c0-2.7969,1.54-4.6221,3.7861-4.6221c1.2998,0,2.3242,0.6025,2.8398,1.6006h0.0352V0.0828
			h1.8672v12.418h-1.8076v-1.54h-0.0342c-0.5332,1.0322-1.5664,1.6348-2.8828,1.6348
			C100.2568,12.5955,98.7168,10.7713,98.7168,7.9744z M100.6181,7.9744c0,1.8584,0.9473,3.0459,2.3926,3.0459
			c1.4287,0,2.3838-1.2051,2.3838-3.0459c0-1.8252-0.9551-3.0381-2.3838-3.0381C101.5654,4.9363,100.6181,6.1326,100.6181,7.9744z"
			/>
		<path fill="#FFFFFF" d="M115.1533,6.5623c-0.1631-0.9551-0.9121-1.6689-2.1338-1.6689c-1.4287,0-2.376,1.1963-2.376,3.0811
			c0,1.9277,0.9561,3.0889,2.3926,3.0889c1.1533,0,1.9111-0.5762,2.1172-1.626h1.79c-0.2061,1.9014-1.7295,3.1758-3.9238,3.1758
			c-2.582,0-4.2686-1.7646-4.2686-4.6387c0-2.8145,1.6865-4.6387,4.251-4.6387c2.3232,0,3.7695,1.4629,3.9248,3.2266H115.1533z"/>
		<path fill="#FFFFFF" d="M118.082,9.9275c0-1.583,1.2129-2.5391,3.3643-2.668l2.4785-0.1377V6.4334
			c0-1.0068-0.6621-1.5752-1.7891-1.5752c-1.0332,0-1.7559,0.4912-1.9023,1.2744h-1.7383c0.0518-1.6357,1.5742-2.7969,3.6914-2.7969
			c2.1602,0,3.5889,1.1787,3.5889,2.96v6.2051h-1.7812v-1.4893h-0.043c-0.5254,1.0068-1.6699,1.6445-2.8574,1.6445
			C119.3213,12.656,118.082,11.5545,118.082,9.9275z M123.9248,9.1101V8.4129l-2.2285,0.1377
			c-1.1104,0.0693-1.7383,0.5508-1.7383,1.3252c0,0.792,0.6543,1.3086,1.6523,1.3086
			C122.9101,11.1843,123.9248,10.2888,123.9248,9.1101z"/>
		<path fill="#FFFFFF" d="M130.9628,3.3445c2.0059,0,3.4424,1.1094,3.4854,2.71h-1.7471c-0.0771-0.7998-0.7568-1.29-1.79-1.29
			c-1.0068,0-1.6777,0.4639-1.6777,1.1699c0,0.542,0.4473,0.9033,1.3857,1.1357l1.5234,0.3535
			c1.8242,0.4385,2.5127,1.1094,2.5127,2.4355c0,1.6348-1.5488,2.7539-3.7607,2.7539c-2.1348,0-3.5713-1.0938-3.709-2.7461h1.8408
			c0.1299,0.8691,0.8262,1.334,1.9541,1.334c1.1104,0,1.8076-0.4561,1.8076-1.1787c0-0.5596-0.3447-0.8604-1.291-1.1016
			l-1.6182-0.3955c-1.6357-0.3965-2.4619-1.2314-2.4619-2.4873C127.417,4.4373,128.8544,3.3445,130.9628,3.3445z"/>
		<path fill="#FFFFFF" d="M138.6933,1.3045V3.447h1.7217v1.4717h-1.7217v4.9912c0,0.7754,0.3447,1.1367,1.1016,1.1367
			c0.1895,0,0.4912-0.0264,0.6113-0.043v1.4629c-0.2061,0.0518-0.6191,0.0859-1.0322,0.0859c-1.833,0-2.5479-0.6885-2.5479-2.4443
			V4.9187h-1.3164V3.447h1.3164V1.3045H138.6933z"/>
		<path fill="#FFFFFF" d="M145.4121,3.3445c2.0059,0,3.4424,1.1094,3.4854,2.71h-1.7471c-0.0771-0.7998-0.7568-1.29-1.79-1.29
			c-1.0068,0-1.6777,0.4639-1.6777,1.1699c0,0.542,0.4473,0.9033,1.3857,1.1357l1.5234,0.3535
			c1.8242,0.4385,2.5127,1.1094,2.5127,2.4355c0,1.6348-1.5488,2.7539-3.7607,2.7539c-2.1348,0-3.5713-1.0938-3.709-2.7461h1.8408
			c0.1299,0.8691,0.8262,1.334,1.9541,1.334c1.1104,0,1.8076-0.4561,1.8076-1.1787c0-0.5596-0.3447-0.8604-1.291-1.1016
			l-1.6182-0.3955c-1.6357-0.3965-2.4619-1.2314-2.4619-2.4873C141.8662,4.4373,143.3037,3.3445,145.4121,3.3445z"/>
	</g>
</g>
<g id="XMLID_707_">
	<linearGradient id="XMLID_2_" gradientUnits="userSpaceOnUse" x1="12.5815" y1="5.021666e-07" x2="12.5815" y2="25.163">
		<stop  offset="0" style="stop-color:#F452FF"/>
		<stop  offset="1" style="stop-color:#832BC1"/>
	</linearGradient>
	<path id="XMLID_737_" fill-rule="evenodd" clip-rule="evenodd" fill="url(#XMLID_2_)" d="M24.6653,21.8098
		c-0.2446,0.6213-0.809,1.4961-1.6094,2.1124c-0.4621,0.3559-1.0138,0.6961-1.7716,0.9206
		c-0.8078,0.2394-1.8028,0.3203-3.0412,0.3203H6.9198c-1.2383,0-2.2333-0.0809-3.0412-0.3203
		c-0.7578-0.2245-1.3094-0.5647-1.7716-0.9206c-0.8003-0.6163-1.3648-1.491-1.6094-2.1124C0.005,20.558,0,19.1376,0,18.2432l0,0
		V6.9198l0,0C0,6.0254,0.005,4.605,0.4977,3.3532c0.2446-0.6213,0.809-1.4961,1.6094-2.1123
		C2.5692,0.885,3.1209,0.5448,3.8786,0.3203C4.6865,0.0809,5.6815,0,6.9198,0l0,0h11.3234l0,0c1.2383,0,2.2333,0.0809,3.0412,0.3203
		c0.7578,0.2245,1.3094,0.5648,1.7716,0.9206c0.8003,0.6163,1.3648,1.491,1.6094,2.1123C25.158,4.605,25.163,6.0254,25.163,6.9198
		v11.3233C25.163,19.1376,25.158,20.558,24.6653,21.8098z"/>
	<path id="XMLID_735_" fill-rule="evenodd" clip-rule="evenodd" fill="none" d="M24.6653,21.8098
		c-0.2446,0.6213-0.809,1.4961-1.6094,2.1124c-0.4621,0.3559-1.0138,0.6961-1.7716,0.9206
		c-0.8078,0.2394-1.8028,0.3203-3.0412,0.3203H6.9198c-1.2383,0-2.2333-0.0809-3.0412-0.3203
		c-0.7578-0.2245-1.3094-0.5647-1.7716-0.9206c-0.8003-0.6163-1.3648-1.491-1.6094-2.1124C0.005,20.558,0,19.1376,0,18.2432l0,0
		V6.9198l0,0C0,6.0254,0.005,4.605,0.4977,3.3532c0.2446-0.6213,0.809-1.4961,1.6094-2.1123
		C2.5692,0.885,3.1209,0.5448,3.8786,0.3203C4.6865,0.0809,5.6815,0,6.9198,0l0,0h11.3234l0,0c1.2383,0,2.2333,0.0809,3.0412,0.3203
		c0.7578,0.2245,1.3094,0.5648,1.7716,0.9206c0.8003,0.6163,1.3648,1.491,1.6094,2.1123C25.158,4.605,25.163,6.0254,25.163,6.9198
		v11.3233C25.163,19.1376,25.158,20.558,24.6653,21.8098z"/>
	<g id="XMLID_723_">
		<g>
			<path fill="#FFFFFF" d="M14.4063,14.4632c-0.3775-0.3983-1.0407-0.6537-1.8237-0.6537s-1.4462,0.2554-1.8237,0.6537
				c-0.1971,0.2079-0.3013,0.421-0.3341,0.7246c-0.0635,0.588-0.0278,1.0941,0.0411,1.9035
				c0.0656,0.7712,0.1901,1.7996,0.3528,2.847c0.1157,0.7454,0.2097,1.1477,0.2953,1.4359
				c0.1388,0.4669,0.6575,0.8752,1.4686,0.8752s1.3298-0.4084,1.4686-0.8752c0.0856-0.2881,0.1797-0.6904,0.2953-1.4359
				c0.1627-1.0474,0.2872-2.0757,0.3528-2.847c0.0688-0.8094,0.1046-1.3156,0.041-1.9035
				C14.7076,14.8842,14.6034,14.6712,14.4063,14.4632z M10.5253,10.9159c0,1.1374,0.922,2.0594,2.0594,2.0594
				c1.1373,0,2.0593-0.922,2.0593-2.0594c0-1.1373-0.922-2.0594-2.0593-2.0594C11.4473,8.8565,10.5253,9.7786,10.5253,10.9159z
				 M12.5591,2.7888c-4.8164,0.0137-8.7628,3.921-8.8225,8.737c-0.0483,3.9013,2.442,7.2385,5.9195,8.4617
				c0.0845,0.0297,0.1702-0.0403,0.1568-0.1289c-0.0455-0.3028-0.0885-0.6073-0.1281-0.9066
				c-0.014-0.1058-0.0814-0.197-0.1792-0.2397c-2.7485-1.2008-4.6679-3.9575-4.6371-7.1505
				c0.0404-4.1905,3.4621-7.6067,7.6526-7.6406c4.2838-0.0346,7.7799,3.4402,7.7799,7.7162c0,3.1611-1.9109,5.8839-4.6381,7.0751
				c-0.0977,0.0427-0.1647,0.1342-0.1786,0.2398c-0.0395,0.2992-0.0825,0.6035-0.128,0.9062
				c-0.0133,0.0885,0.0723,0.1586,0.1567,0.1289c3.4443-1.2115,5.9202-4.4968,5.9202-8.35
				C21.4334,6.7498,17.45,2.775,12.5591,2.7888z M12.3993,6.8485c2.7302-0.1058,4.9851,2.0847,4.9851,4.7919
				c0,1.3768-0.5833,2.6198-1.5157,3.4952c-0.079,0.0742-0.1215,0.1796-0.1154,0.2878c0.0186,0.3294,0.0118,0.6493-0.0101,1.0107
				c-0.0059,0.0963,0.1021,0.1578,0.1817,0.1034c1.5635-1.0684,2.5918-2.8648,2.5918-4.8972c0-3.3464-2.7874-6.0541-6.1623-5.9233
				c-3.1364,0.1215-5.6528,2.7075-5.6929,5.846c-0.0264,2.0643,1.0082,3.8929,2.5917,4.9748
				c0.0795,0.0543,0.1872-0.0074,0.1814-0.1035c-0.022-0.3616-0.0287-0.6816-0.0102-1.0109
				C9.4304,15.3153,9.388,15.21,9.309,15.1358c-0.9614-0.9026-1.5518-2.1962-1.5142-3.6241
				C7.861,8.9986,9.8871,6.9458,12.3993,6.8485z"/>
		</g>
	</g>
</g>
<g>
	<path fill="#FFFFFF" d="M32.4961,22.2293c0-1.165,0.6514-2.2256,1.7119-3.0234c-0.9561,0.084-2.7402,0.21-3.8955,0.2734
		l-0.0732-0.9766c1.2393-0.0312,3.8213-0.1992,4.7139-0.2725c0.7559-0.0527,1.6904-0.1582,2.3516-0.2422l0.1152,0.998
		c-0.4199,0.0205-1.1123,0.1152-1.4277,0.168c-0.1787,0.0312-0.5039,0.1885-0.6924,0.3037
		c-1.0918,0.7139-1.7637,1.6484-1.7637,2.7295c0,1.1133,0.9756,1.8164,3.2012,1.9219l-0.1357,0.9971
		C34.0185,25.0115,32.4961,24.0349,32.4961,22.2293z M35.5615,20.2664l0.6201-0.2939c0.3145,0.4512,0.5664,0.9453,0.7559,1.417
		l-0.6719,0.3154C36.0976,21.2117,35.8554,20.6863,35.5615,20.2664z M36.7275,19.8357l0.6191-0.2939
		c0.3359,0.4834,0.5771,0.8926,0.7979,1.418l-0.6934,0.3145C37.2519,20.7283,37.042,20.2879,36.7275,19.8357z"/>
	<path fill="#FFFFFF" d="M42.4082,22.8074l0.8291,0.1777c-0.1152,0.6826-0.3564,1.5225-0.6191,2.0371l-0.7871-0.2734v0.7139h-0.8721
		v-1.5742c-0.6924,0.1787-1.5117,0.3564-2.0469,0.4824l-0.1992-0.9131l0.5244-0.084v-5.2275h-0.4404v-0.8398h3.4746v0.5557h1.9209
		v-0.8076h0.9238v0.8076h2.0791v0.7666h-2.0791v0.6826h1.8896v2.4355h-2.2881c0.3564,0.2939,0.6504,0.5879,0.8818,0.8926
		l-0.6934,0.5039c-0.2725-0.4102-0.6299-0.7559-1.0596-1.1133l0.3359-0.2832h-1.8799v-2.4355h1.8896v-0.6826H42.167v-0.4824H41.831
		v6.5088C42.0927,24.1297,42.3242,23.3738,42.4082,22.8074z M40.9589,18.1463h-0.8604v1.0703h0.8604V18.1463z M40.9589,20.0144
		h-0.8604v1.1133h0.8604V20.0144z M40.9589,21.9256h-0.8604v1.3115l0.8604-0.1572V21.9256z M43.7099,20.0144H43.122v1.0391h0.5879
		V20.0144z M45.2324,23.8152l0.8076,0.126c-0.0625,1.2178-0.2412,1.375-0.9551,1.375h-0.6826c-0.7979,0-0.9756-0.2207-0.9756-1.2393
		v-1.4375h0.8604v1.4375c0,0.3047,0.042,0.3467,0.2207,0.3467h0.5146C45.2002,24.4236,45.2109,24.3924,45.2324,23.8152z
		 M44.3183,21.0535h0.6094v-1.0391h-0.6094V21.0535z M45.5468,21.0535h0.6094v-1.0391h-0.6094V21.0535z M47.29,24.5711
		l-0.8721,0.3037c-0.1357-0.5977-0.4404-1.2695-0.7979-1.8789l0.7666-0.3252C46.8281,23.3631,47.1318,23.9832,47.29,24.5711z"/>
	<path fill="#FFFFFF" d="M54.1045,24.6131l-0.9033,0.7871c-0.9863-1.1445-2.7402-2.499-4.4199-3.6113
		c-0.168-0.1055-0.2305-0.252-0.2305-0.4199s0.1045-0.3779,0.3047-0.5254c1.1855-0.8496,3.1699-2.6455,4.041-3.7158l0.8398,0.7031
		c-0.8604,0.9551-2.6133,2.5615-3.6846,3.3389c-0.0625,0.0518-0.0947,0.1045-0.0947,0.1465c0,0.0527,0.0322,0.0947,0.0742,0.126
		C51.6582,22.5027,53.1591,23.6785,54.1045,24.6131z"/>
</g>
<g>
</g>
<g>
</g>
<g>
</g>
<g>
</g>
<g>
</g>
<g>
</g>
<g>
</g>
<g>
</g>
<g>
</g>
<g>
</g>
<g>
</g>
<g>
</g>
<g>
</g>
<g>
</g>
<g>
</g>
</svg>
